# xmcd
#
# Track frame offsets:
#	150
#	18062
#	32242
#	44515
#	61152
#	72650
#	86937
#	100572
#	113250
#	124997
#	136232
#	150202
#
# Disc length: 2146 seconds
#
# Revision: 1
# Processed by: cddbd v1.4PL0 Copyright (c) Steve Scherf et al.
# Submitted via: audiograbber 1.80.04
#
DISCID=9308600c
DTITLE=Hoyt Axton - My Griffin is Gone
DYEAR=1969
DGENRE=
TTITLE0=On the Natural
TTITLE1=Way Before the Time of Towns
TTITLE2=Beelezebub's Laughter
TTITLE3=Sunshine Fields of Love
TTITLE4=It's All Right Now
TTITLE5=Gypsy Will
TTITLE6=Revelations
TTITLE7=Snowblind Friend
TTITLE8=Childhood End
TTITLE9=Sunrise
TTITLE10=Kingswood Manor
TTITLE11=Chase Down the Sun
EXTD=
EXTT0=
EXTT1=
EXTT2=
EXTT3=
EXTT4=
EXTT5=
EXTT6=
EXTT7=
EXTT8=
EXTT9=
EXTT10=
EXTT11=
PLAYORDER=
